<mxfile host="app.diagrams.net" modified="2023-07-23T07:22:25.870Z" agent="Mozilla/5.0 (Windows NT 10.0; Win64; x64; rv:109.0) Gecko/20100101 Firefox/115.0" etag="GLPwaXr30lw8uys_PVdI" version="21.6.5" type="device">
  <diagram name="Page-1" id="VZIIqRRXdtm2IghGHygO">
    <mxGraphModel dx="794" dy="432" grid="1" gridSize="10" guides="1" tooltips="1" connect="1" arrows="1" fold="1" page="1" pageScale="1" pageWidth="1100" pageHeight="850" math="0" shadow="0">
      <root>
        <mxCell id="0" />
        <mxCell id="1" parent="0" />
        <mxCell id="iajkwG3QeJljan4XgmEn-14" value="" style="shape=table;startSize=0;container=1;collapsible=0;childLayout=tableLayout;" vertex="1" parent="1">
          <mxGeometry x="4" y="180" width="60" height="200" as="geometry" />
        </mxCell>
        <mxCell id="iajkwG3QeJljan4XgmEn-15" value="" style="shape=tableRow;horizontal=0;startSize=0;swimlaneHead=0;swimlaneBody=0;strokeColor=inherit;top=0;left=0;bottom=0;right=0;collapsible=0;dropTarget=0;fillColor=none;points=[[0,0.5],[1,0.5]];portConstraint=eastwest;" vertex="1" parent="iajkwG3QeJljan4XgmEn-14">
          <mxGeometry width="60" height="40" as="geometry" />
        </mxCell>
        <mxCell id="iajkwG3QeJljan4XgmEn-16" value="4" style="shape=partialRectangle;html=1;whiteSpace=wrap;connectable=0;strokeColor=inherit;overflow=hidden;fillColor=none;top=0;left=0;bottom=0;right=0;pointerEvents=1;" vertex="1" parent="iajkwG3QeJljan4XgmEn-15">
          <mxGeometry width="60" height="40" as="geometry">
            <mxRectangle width="60" height="40" as="alternateBounds" />
          </mxGeometry>
        </mxCell>
        <mxCell id="iajkwG3QeJljan4XgmEn-17" value="" style="shape=tableRow;horizontal=0;startSize=0;swimlaneHead=0;swimlaneBody=0;strokeColor=inherit;top=0;left=0;bottom=0;right=0;collapsible=0;dropTarget=0;fillColor=none;points=[[0,0.5],[1,0.5]];portConstraint=eastwest;" vertex="1" parent="iajkwG3QeJljan4XgmEn-14">
          <mxGeometry y="40" width="60" height="40" as="geometry" />
        </mxCell>
        <mxCell id="iajkwG3QeJljan4XgmEn-18" value="2" style="shape=partialRectangle;html=1;whiteSpace=wrap;connectable=0;strokeColor=inherit;overflow=hidden;fillColor=none;top=0;left=0;bottom=0;right=0;pointerEvents=1;" vertex="1" parent="iajkwG3QeJljan4XgmEn-17">
          <mxGeometry width="60" height="40" as="geometry">
            <mxRectangle width="60" height="40" as="alternateBounds" />
          </mxGeometry>
        </mxCell>
        <mxCell id="iajkwG3QeJljan4XgmEn-19" value="" style="shape=tableRow;horizontal=0;startSize=0;swimlaneHead=0;swimlaneBody=0;strokeColor=inherit;top=0;left=0;bottom=0;right=0;collapsible=0;dropTarget=0;fillColor=none;points=[[0,0.5],[1,0.5]];portConstraint=eastwest;" vertex="1" parent="iajkwG3QeJljan4XgmEn-14">
          <mxGeometry y="80" width="60" height="40" as="geometry" />
        </mxCell>
        <mxCell id="iajkwG3QeJljan4XgmEn-20" value="3" style="shape=partialRectangle;html=1;whiteSpace=wrap;connectable=0;strokeColor=inherit;overflow=hidden;fillColor=none;top=0;left=0;bottom=0;right=0;pointerEvents=1;" vertex="1" parent="iajkwG3QeJljan4XgmEn-19">
          <mxGeometry width="60" height="40" as="geometry">
            <mxRectangle width="60" height="40" as="alternateBounds" />
          </mxGeometry>
        </mxCell>
        <mxCell id="iajkwG3QeJljan4XgmEn-21" value="" style="shape=tableRow;horizontal=0;startSize=0;swimlaneHead=0;swimlaneBody=0;strokeColor=inherit;top=0;left=0;bottom=0;right=0;collapsible=0;dropTarget=0;fillColor=none;points=[[0,0.5],[1,0.5]];portConstraint=eastwest;" vertex="1" parent="iajkwG3QeJljan4XgmEn-14">
          <mxGeometry y="120" width="60" height="40" as="geometry" />
        </mxCell>
        <mxCell id="iajkwG3QeJljan4XgmEn-22" value="1" style="shape=partialRectangle;html=1;whiteSpace=wrap;connectable=0;strokeColor=inherit;overflow=hidden;fillColor=none;top=0;left=0;bottom=0;right=0;pointerEvents=1;" vertex="1" parent="iajkwG3QeJljan4XgmEn-21">
          <mxGeometry width="60" height="40" as="geometry">
            <mxRectangle width="60" height="40" as="alternateBounds" />
          </mxGeometry>
        </mxCell>
        <mxCell id="iajkwG3QeJljan4XgmEn-23" value="" style="shape=tableRow;horizontal=0;startSize=0;swimlaneHead=0;swimlaneBody=0;strokeColor=inherit;top=0;left=0;bottom=0;right=0;collapsible=0;dropTarget=0;fillColor=none;points=[[0,0.5],[1,0.5]];portConstraint=eastwest;" vertex="1" parent="iajkwG3QeJljan4XgmEn-14">
          <mxGeometry y="160" width="60" height="40" as="geometry" />
        </mxCell>
        <mxCell id="iajkwG3QeJljan4XgmEn-24" value="0" style="shape=partialRectangle;html=1;whiteSpace=wrap;connectable=0;strokeColor=inherit;overflow=hidden;fillColor=none;top=0;left=0;bottom=0;right=0;pointerEvents=1;" vertex="1" parent="iajkwG3QeJljan4XgmEn-23">
          <mxGeometry width="60" height="40" as="geometry">
            <mxRectangle width="60" height="40" as="alternateBounds" />
          </mxGeometry>
        </mxCell>
        <mxCell id="iajkwG3QeJljan4XgmEn-25" value="" style="shape=table;startSize=0;container=1;collapsible=0;childLayout=tableLayout;" vertex="1" parent="1">
          <mxGeometry x="4" y="60" width="180" height="40" as="geometry" />
        </mxCell>
        <mxCell id="iajkwG3QeJljan4XgmEn-26" value="" style="shape=tableRow;horizontal=0;startSize=0;swimlaneHead=0;swimlaneBody=0;strokeColor=inherit;top=0;left=0;bottom=0;right=0;collapsible=0;dropTarget=0;fillColor=none;points=[[0,0.5],[1,0.5]];portConstraint=eastwest;" vertex="1" parent="iajkwG3QeJljan4XgmEn-25">
          <mxGeometry width="180" height="40" as="geometry" />
        </mxCell>
        <mxCell id="iajkwG3QeJljan4XgmEn-27" value="Capacity" style="shape=partialRectangle;html=1;whiteSpace=wrap;connectable=0;strokeColor=inherit;overflow=hidden;fillColor=none;top=0;left=0;bottom=0;right=0;pointerEvents=1;" vertex="1" parent="iajkwG3QeJljan4XgmEn-26">
          <mxGeometry width="60" height="40" as="geometry">
            <mxRectangle width="60" height="40" as="alternateBounds" />
          </mxGeometry>
        </mxCell>
        <mxCell id="iajkwG3QeJljan4XgmEn-28" value="Size" style="shape=partialRectangle;html=1;whiteSpace=wrap;connectable=0;strokeColor=inherit;overflow=hidden;fillColor=none;top=0;left=0;bottom=0;right=0;pointerEvents=1;" vertex="1" parent="iajkwG3QeJljan4XgmEn-26">
          <mxGeometry x="60" width="60" height="40" as="geometry">
            <mxRectangle width="60" height="40" as="alternateBounds" />
          </mxGeometry>
        </mxCell>
        <mxCell id="iajkwG3QeJljan4XgmEn-29" value="" style="shape=partialRectangle;html=1;whiteSpace=wrap;connectable=0;strokeColor=inherit;overflow=hidden;fillColor=none;top=0;left=0;bottom=0;right=0;pointerEvents=1;" vertex="1" parent="iajkwG3QeJljan4XgmEn-26">
          <mxGeometry x="120" width="60" height="40" as="geometry">
            <mxRectangle width="60" height="40" as="alternateBounds" />
          </mxGeometry>
        </mxCell>
        <mxCell id="iajkwG3QeJljan4XgmEn-30" value="" style="shape=table;startSize=0;container=1;collapsible=0;childLayout=tableLayout;" vertex="1" parent="1">
          <mxGeometry x="164" y="180" width="240" height="200" as="geometry" />
        </mxCell>
        <mxCell id="iajkwG3QeJljan4XgmEn-31" value="" style="shape=tableRow;horizontal=0;startSize=0;swimlaneHead=0;swimlaneBody=0;strokeColor=inherit;top=0;left=0;bottom=0;right=0;collapsible=0;dropTarget=0;fillColor=none;points=[[0,0.5],[1,0.5]];portConstraint=eastwest;" vertex="1" parent="iajkwG3QeJljan4XgmEn-30">
          <mxGeometry width="240" height="40" as="geometry" />
        </mxCell>
        <mxCell id="iajkwG3QeJljan4XgmEn-32" value="52" style="shape=partialRectangle;html=1;whiteSpace=wrap;connectable=0;strokeColor=inherit;overflow=hidden;fillColor=none;top=0;left=0;bottom=0;right=0;pointerEvents=1;" vertex="1" parent="iajkwG3QeJljan4XgmEn-31">
          <mxGeometry width="60" height="40" as="geometry">
            <mxRectangle width="60" height="40" as="alternateBounds" />
          </mxGeometry>
        </mxCell>
        <mxCell id="iajkwG3QeJljan4XgmEn-59" value="4" style="shape=partialRectangle;html=1;whiteSpace=wrap;connectable=0;strokeColor=inherit;overflow=hidden;fillColor=none;top=0;left=0;bottom=0;right=0;pointerEvents=1;" vertex="1" parent="iajkwG3QeJljan4XgmEn-31">
          <mxGeometry x="60" width="60" height="40" as="geometry">
            <mxRectangle width="60" height="40" as="alternateBounds" />
          </mxGeometry>
        </mxCell>
        <mxCell id="iajkwG3QeJljan4XgmEn-64" value="350" style="shape=partialRectangle;html=1;whiteSpace=wrap;connectable=0;strokeColor=inherit;overflow=hidden;fillColor=none;top=0;left=0;bottom=0;right=0;pointerEvents=1;" vertex="1" parent="iajkwG3QeJljan4XgmEn-31">
          <mxGeometry x="120" width="60" height="40" as="geometry">
            <mxRectangle width="60" height="40" as="alternateBounds" />
          </mxGeometry>
        </mxCell>
        <mxCell id="iajkwG3QeJljan4XgmEn-69" value="12" style="shape=partialRectangle;html=1;whiteSpace=wrap;connectable=0;strokeColor=inherit;overflow=hidden;fillColor=none;top=0;left=0;bottom=0;right=0;pointerEvents=1;" vertex="1" parent="iajkwG3QeJljan4XgmEn-31">
          <mxGeometry x="180" width="60" height="40" as="geometry">
            <mxRectangle width="60" height="40" as="alternateBounds" />
          </mxGeometry>
        </mxCell>
        <mxCell id="iajkwG3QeJljan4XgmEn-33" value="" style="shape=tableRow;horizontal=0;startSize=0;swimlaneHead=0;swimlaneBody=0;strokeColor=inherit;top=0;left=0;bottom=0;right=0;collapsible=0;dropTarget=0;fillColor=none;points=[[0,0.5],[1,0.5]];portConstraint=eastwest;" vertex="1" parent="iajkwG3QeJljan4XgmEn-30">
          <mxGeometry y="40" width="240" height="40" as="geometry" />
        </mxCell>
        <mxCell id="iajkwG3QeJljan4XgmEn-34" value="42" style="shape=partialRectangle;html=1;whiteSpace=wrap;connectable=0;strokeColor=inherit;overflow=hidden;fillColor=none;top=0;left=0;bottom=0;right=0;pointerEvents=1;" vertex="1" parent="iajkwG3QeJljan4XgmEn-33">
          <mxGeometry width="60" height="40" as="geometry">
            <mxRectangle width="60" height="40" as="alternateBounds" />
          </mxGeometry>
        </mxCell>
        <mxCell id="iajkwG3QeJljan4XgmEn-60" value="99" style="shape=partialRectangle;html=1;whiteSpace=wrap;connectable=0;strokeColor=inherit;overflow=hidden;fillColor=none;top=0;left=0;bottom=0;right=0;pointerEvents=1;" vertex="1" parent="iajkwG3QeJljan4XgmEn-33">
          <mxGeometry x="60" width="60" height="40" as="geometry">
            <mxRectangle width="60" height="40" as="alternateBounds" />
          </mxGeometry>
        </mxCell>
        <mxCell id="iajkwG3QeJljan4XgmEn-65" value="15" style="shape=partialRectangle;html=1;whiteSpace=wrap;connectable=0;strokeColor=inherit;overflow=hidden;fillColor=none;top=0;left=0;bottom=0;right=0;pointerEvents=1;" vertex="1" parent="iajkwG3QeJljan4XgmEn-33">
          <mxGeometry x="120" width="60" height="40" as="geometry">
            <mxRectangle width="60" height="40" as="alternateBounds" />
          </mxGeometry>
        </mxCell>
        <mxCell id="iajkwG3QeJljan4XgmEn-70" value="14" style="shape=partialRectangle;html=1;whiteSpace=wrap;connectable=0;strokeColor=inherit;overflow=hidden;fillColor=none;top=0;left=0;bottom=0;right=0;pointerEvents=1;" vertex="1" parent="iajkwG3QeJljan4XgmEn-33">
          <mxGeometry x="180" width="60" height="40" as="geometry">
            <mxRectangle width="60" height="40" as="alternateBounds" />
          </mxGeometry>
        </mxCell>
        <mxCell id="iajkwG3QeJljan4XgmEn-35" value="" style="shape=tableRow;horizontal=0;startSize=0;swimlaneHead=0;swimlaneBody=0;strokeColor=inherit;top=0;left=0;bottom=0;right=0;collapsible=0;dropTarget=0;fillColor=none;points=[[0,0.5],[1,0.5]];portConstraint=eastwest;" vertex="1" parent="iajkwG3QeJljan4XgmEn-30">
          <mxGeometry y="80" width="240" height="40" as="geometry" />
        </mxCell>
        <mxCell id="iajkwG3QeJljan4XgmEn-36" value="31" style="shape=partialRectangle;html=1;whiteSpace=wrap;connectable=0;strokeColor=inherit;overflow=hidden;fillColor=none;top=0;left=0;bottom=0;right=0;pointerEvents=1;" vertex="1" parent="iajkwG3QeJljan4XgmEn-35">
          <mxGeometry width="60" height="40" as="geometry">
            <mxRectangle width="60" height="40" as="alternateBounds" />
          </mxGeometry>
        </mxCell>
        <mxCell id="iajkwG3QeJljan4XgmEn-61" value="350" style="shape=partialRectangle;html=1;whiteSpace=wrap;connectable=0;strokeColor=inherit;overflow=hidden;fillColor=none;top=0;left=0;bottom=0;right=0;pointerEvents=1;" vertex="1" parent="iajkwG3QeJljan4XgmEn-35">
          <mxGeometry x="60" width="60" height="40" as="geometry">
            <mxRectangle width="60" height="40" as="alternateBounds" />
          </mxGeometry>
        </mxCell>
        <mxCell id="iajkwG3QeJljan4XgmEn-66" value="395" style="shape=partialRectangle;html=1;whiteSpace=wrap;connectable=0;strokeColor=inherit;overflow=hidden;fillColor=none;top=0;left=0;bottom=0;right=0;pointerEvents=1;" vertex="1" parent="iajkwG3QeJljan4XgmEn-35">
          <mxGeometry x="120" width="60" height="40" as="geometry">
            <mxRectangle width="60" height="40" as="alternateBounds" />
          </mxGeometry>
        </mxCell>
        <mxCell id="iajkwG3QeJljan4XgmEn-71" value="234" style="shape=partialRectangle;html=1;whiteSpace=wrap;connectable=0;strokeColor=inherit;overflow=hidden;fillColor=none;top=0;left=0;bottom=0;right=0;pointerEvents=1;" vertex="1" parent="iajkwG3QeJljan4XgmEn-35">
          <mxGeometry x="180" width="60" height="40" as="geometry">
            <mxRectangle width="60" height="40" as="alternateBounds" />
          </mxGeometry>
        </mxCell>
        <mxCell id="iajkwG3QeJljan4XgmEn-37" value="" style="shape=tableRow;horizontal=0;startSize=0;swimlaneHead=0;swimlaneBody=0;strokeColor=inherit;top=0;left=0;bottom=0;right=0;collapsible=0;dropTarget=0;fillColor=none;points=[[0,0.5],[1,0.5]];portConstraint=eastwest;" vertex="1" parent="iajkwG3QeJljan4XgmEn-30">
          <mxGeometry y="120" width="240" height="40" as="geometry" />
        </mxCell>
        <mxCell id="iajkwG3QeJljan4XgmEn-38" value="42" style="shape=partialRectangle;html=1;whiteSpace=wrap;connectable=0;strokeColor=inherit;overflow=hidden;fillColor=none;top=0;left=0;bottom=0;right=0;pointerEvents=1;" vertex="1" parent="iajkwG3QeJljan4XgmEn-37">
          <mxGeometry width="60" height="40" as="geometry">
            <mxRectangle width="60" height="40" as="alternateBounds" />
          </mxGeometry>
        </mxCell>
        <mxCell id="iajkwG3QeJljan4XgmEn-62" value="0" style="shape=partialRectangle;html=1;whiteSpace=wrap;connectable=0;strokeColor=inherit;overflow=hidden;fillColor=none;top=0;left=0;bottom=0;right=0;pointerEvents=1;" vertex="1" parent="iajkwG3QeJljan4XgmEn-37">
          <mxGeometry x="60" width="60" height="40" as="geometry">
            <mxRectangle width="60" height="40" as="alternateBounds" />
          </mxGeometry>
        </mxCell>
        <mxCell id="iajkwG3QeJljan4XgmEn-67" value="42" style="shape=partialRectangle;html=1;whiteSpace=wrap;connectable=0;strokeColor=inherit;overflow=hidden;fillColor=none;top=0;left=0;bottom=0;right=0;pointerEvents=1;" vertex="1" parent="iajkwG3QeJljan4XgmEn-37">
          <mxGeometry x="120" width="60" height="40" as="geometry">
            <mxRectangle width="60" height="40" as="alternateBounds" />
          </mxGeometry>
        </mxCell>
        <mxCell id="iajkwG3QeJljan4XgmEn-72" value="1" style="shape=partialRectangle;html=1;whiteSpace=wrap;connectable=0;strokeColor=inherit;overflow=hidden;fillColor=none;top=0;left=0;bottom=0;right=0;pointerEvents=1;" vertex="1" parent="iajkwG3QeJljan4XgmEn-37">
          <mxGeometry x="180" width="60" height="40" as="geometry">
            <mxRectangle width="60" height="40" as="alternateBounds" />
          </mxGeometry>
        </mxCell>
        <mxCell id="iajkwG3QeJljan4XgmEn-39" value="" style="shape=tableRow;horizontal=0;startSize=0;swimlaneHead=0;swimlaneBody=0;strokeColor=inherit;top=0;left=0;bottom=0;right=0;collapsible=0;dropTarget=0;fillColor=none;points=[[0,0.5],[1,0.5]];portConstraint=eastwest;" vertex="1" parent="iajkwG3QeJljan4XgmEn-30">
          <mxGeometry y="160" width="240" height="40" as="geometry" />
        </mxCell>
        <mxCell id="iajkwG3QeJljan4XgmEn-40" value="22" style="shape=partialRectangle;html=1;whiteSpace=wrap;connectable=0;strokeColor=inherit;overflow=hidden;fillColor=none;top=0;left=0;bottom=0;right=0;pointerEvents=1;" vertex="1" parent="iajkwG3QeJljan4XgmEn-39">
          <mxGeometry width="60" height="40" as="geometry">
            <mxRectangle width="60" height="40" as="alternateBounds" />
          </mxGeometry>
        </mxCell>
        <mxCell id="iajkwG3QeJljan4XgmEn-63" value="4" style="shape=partialRectangle;html=1;whiteSpace=wrap;connectable=0;strokeColor=inherit;overflow=hidden;fillColor=none;top=0;left=0;bottom=0;right=0;pointerEvents=1;" vertex="1" parent="iajkwG3QeJljan4XgmEn-39">
          <mxGeometry x="60" width="60" height="40" as="geometry">
            <mxRectangle width="60" height="40" as="alternateBounds" />
          </mxGeometry>
        </mxCell>
        <mxCell id="iajkwG3QeJljan4XgmEn-68" value="0" style="shape=partialRectangle;html=1;whiteSpace=wrap;connectable=0;strokeColor=inherit;overflow=hidden;fillColor=none;top=0;left=0;bottom=0;right=0;pointerEvents=1;" vertex="1" parent="iajkwG3QeJljan4XgmEn-39">
          <mxGeometry x="120" width="60" height="40" as="geometry">
            <mxRectangle width="60" height="40" as="alternateBounds" />
          </mxGeometry>
        </mxCell>
        <mxCell id="iajkwG3QeJljan4XgmEn-73" value="42" style="shape=partialRectangle;html=1;whiteSpace=wrap;connectable=0;strokeColor=inherit;overflow=hidden;fillColor=none;top=0;left=0;bottom=0;right=0;pointerEvents=1;" vertex="1" parent="iajkwG3QeJljan4XgmEn-39">
          <mxGeometry x="180" width="60" height="40" as="geometry">
            <mxRectangle width="60" height="40" as="alternateBounds" />
          </mxGeometry>
        </mxCell>
        <mxCell id="iajkwG3QeJljan4XgmEn-41" value="&lt;font style=&quot;font-size: 20px;&quot;&gt;Permutations&lt;br&gt;&lt;/font&gt;" style="text;html=1;strokeColor=none;fillColor=none;align=center;verticalAlign=middle;whiteSpace=wrap;rounded=0;" vertex="1" parent="1">
          <mxGeometry y="20" width="190" height="40" as="geometry" />
        </mxCell>
        <mxCell id="iajkwG3QeJljan4XgmEn-42" value="" style="curved=1;endArrow=classic;html=1;rounded=0;" edge="1" parent="1" target="iajkwG3QeJljan4XgmEn-15">
          <mxGeometry width="50" height="50" relative="1" as="geometry">
            <mxPoint x="154" y="80" as="sourcePoint" />
            <mxPoint x="204" y="30" as="targetPoint" />
            <Array as="points">
              <mxPoint x="104" y="150" />
              <mxPoint x="74" y="130" />
            </Array>
          </mxGeometry>
        </mxCell>
        <mxCell id="iajkwG3QeJljan4XgmEn-43" value="" style="endArrow=none;dashed=1;html=1;dashPattern=1 3;strokeWidth=2;rounded=0;entryX=0;entryY=0.5;entryDx=0;entryDy=0;" edge="1" parent="1" target="iajkwG3QeJljan4XgmEn-31">
          <mxGeometry width="50" height="50" relative="1" as="geometry">
            <mxPoint x="64" y="360" as="sourcePoint" />
            <mxPoint x="114" y="310" as="targetPoint" />
          </mxGeometry>
        </mxCell>
        <mxCell id="iajkwG3QeJljan4XgmEn-44" value="" style="endArrow=none;dashed=1;html=1;dashPattern=1 3;strokeWidth=2;rounded=0;entryX=0;entryY=0.5;entryDx=0;entryDy=0;" edge="1" parent="1" target="iajkwG3QeJljan4XgmEn-39">
          <mxGeometry width="50" height="50" relative="1" as="geometry">
            <mxPoint x="64" y="200" as="sourcePoint" />
            <mxPoint x="114" y="150" as="targetPoint" />
          </mxGeometry>
        </mxCell>
        <mxCell id="iajkwG3QeJljan4XgmEn-45" value="" style="endArrow=none;dashed=1;html=1;dashPattern=1 3;strokeWidth=2;rounded=0;entryX=0;entryY=0.5;entryDx=0;entryDy=0;exitX=1;exitY=0.5;exitDx=0;exitDy=0;" edge="1" parent="1" source="iajkwG3QeJljan4XgmEn-17" target="iajkwG3QeJljan4XgmEn-35">
          <mxGeometry width="50" height="50" relative="1" as="geometry">
            <mxPoint x="64" y="250" as="sourcePoint" />
            <mxPoint x="114" y="200" as="targetPoint" />
          </mxGeometry>
        </mxCell>
        <mxCell id="iajkwG3QeJljan4XgmEn-46" value="" style="endArrow=none;dashed=1;html=1;dashPattern=1 3;strokeWidth=2;rounded=0;exitX=1;exitY=0.5;exitDx=0;exitDy=0;entryX=0;entryY=0.5;entryDx=0;entryDy=0;" edge="1" parent="1" source="iajkwG3QeJljan4XgmEn-19" target="iajkwG3QeJljan4XgmEn-37">
          <mxGeometry width="50" height="50" relative="1" as="geometry">
            <mxPoint x="84" y="290" as="sourcePoint" />
            <mxPoint x="134" y="240" as="targetPoint" />
          </mxGeometry>
        </mxCell>
        <mxCell id="iajkwG3QeJljan4XgmEn-47" value="" style="endArrow=none;dashed=1;html=1;dashPattern=1 3;strokeWidth=2;rounded=0;exitX=1.017;exitY=0.7;exitDx=0;exitDy=0;exitPerimeter=0;entryX=-0.017;entryY=0.675;entryDx=0;entryDy=0;entryPerimeter=0;" edge="1" parent="1" source="iajkwG3QeJljan4XgmEn-14" target="iajkwG3QeJljan4XgmEn-33">
          <mxGeometry width="50" height="50" relative="1" as="geometry">
            <mxPoint x="114" y="430" as="sourcePoint" />
            <mxPoint x="164" y="380" as="targetPoint" />
          </mxGeometry>
        </mxCell>
        <mxCell id="iajkwG3QeJljan4XgmEn-48" value="" style="shape=table;startSize=0;container=1;collapsible=0;childLayout=tableLayout;" vertex="1" parent="1">
          <mxGeometry x="254" y="60" width="180" height="40" as="geometry" />
        </mxCell>
        <mxCell id="iajkwG3QeJljan4XgmEn-49" value="" style="shape=tableRow;horizontal=0;startSize=0;swimlaneHead=0;swimlaneBody=0;strokeColor=inherit;top=0;left=0;bottom=0;right=0;collapsible=0;dropTarget=0;fillColor=none;points=[[0,0.5],[1,0.5]];portConstraint=eastwest;" vertex="1" parent="iajkwG3QeJljan4XgmEn-48">
          <mxGeometry width="180" height="40" as="geometry" />
        </mxCell>
        <mxCell id="iajkwG3QeJljan4XgmEn-50" value="Capacity" style="shape=partialRectangle;html=1;whiteSpace=wrap;connectable=0;strokeColor=inherit;overflow=hidden;fillColor=none;top=0;left=0;bottom=0;right=0;pointerEvents=1;" vertex="1" parent="iajkwG3QeJljan4XgmEn-49">
          <mxGeometry width="60" height="40" as="geometry">
            <mxRectangle width="60" height="40" as="alternateBounds" />
          </mxGeometry>
        </mxCell>
        <mxCell id="iajkwG3QeJljan4XgmEn-51" value="Size" style="shape=partialRectangle;html=1;whiteSpace=wrap;connectable=0;strokeColor=inherit;overflow=hidden;fillColor=none;top=0;left=0;bottom=0;right=0;pointerEvents=1;" vertex="1" parent="iajkwG3QeJljan4XgmEn-49">
          <mxGeometry x="60" width="60" height="40" as="geometry">
            <mxRectangle width="60" height="40" as="alternateBounds" />
          </mxGeometry>
        </mxCell>
        <mxCell id="iajkwG3QeJljan4XgmEn-52" value="" style="shape=partialRectangle;html=1;whiteSpace=wrap;connectable=0;strokeColor=inherit;overflow=hidden;fillColor=none;top=0;left=0;bottom=0;right=0;pointerEvents=1;" vertex="1" parent="iajkwG3QeJljan4XgmEn-49">
          <mxGeometry x="120" width="60" height="40" as="geometry">
            <mxRectangle width="60" height="40" as="alternateBounds" />
          </mxGeometry>
        </mxCell>
        <mxCell id="iajkwG3QeJljan4XgmEn-53" value="" style="curved=1;endArrow=classic;html=1;rounded=0;entryX=0.129;entryY=0;entryDx=0;entryDy=0;entryPerimeter=0;" edge="1" parent="1" target="iajkwG3QeJljan4XgmEn-31">
          <mxGeometry width="50" height="50" relative="1" as="geometry">
            <mxPoint x="404" y="80" as="sourcePoint" />
            <mxPoint x="454" y="30" as="targetPoint" />
            <Array as="points">
              <mxPoint x="404" y="140" />
              <mxPoint x="214" y="140" />
            </Array>
          </mxGeometry>
        </mxCell>
        <mxCell id="iajkwG3QeJljan4XgmEn-54" value="" style="endArrow=classic;html=1;rounded=0;entryX=1.017;entryY=0.2;entryDx=0;entryDy=0;entryPerimeter=0;fillColor=#ffe6cc;strokeColor=#d79b00;exitX=0.911;exitY=1;exitDx=0;exitDy=0;exitPerimeter=0;" edge="1" parent="1" source="iajkwG3QeJljan4XgmEn-25" target="iajkwG3QeJljan4XgmEn-15">
          <mxGeometry width="50" height="50" relative="1" as="geometry">
            <mxPoint x="189" y="65" as="sourcePoint" />
            <mxPoint x="239" y="15" as="targetPoint" />
          </mxGeometry>
        </mxCell>
        <mxCell id="iajkwG3QeJljan4XgmEn-55" value="" style="endArrow=classic;html=1;rounded=0;fillColor=#ffe6cc;strokeColor=#d79b00;entryX=0.706;entryY=1;entryDx=0;entryDy=0;entryPerimeter=0;" edge="1" parent="1" target="iajkwG3QeJljan4XgmEn-49">
          <mxGeometry width="50" height="50" relative="1" as="geometry">
            <mxPoint x="64" y="210" as="sourcePoint" />
            <mxPoint x="374" y="110" as="targetPoint" />
          </mxGeometry>
        </mxCell>
        <mxCell id="iajkwG3QeJljan4XgmEn-56" value="" style="endArrow=classic;html=1;rounded=0;exitX=0.906;exitY=1.025;exitDx=0;exitDy=0;exitPerimeter=0;entryX=0;entryY=0.5;entryDx=0;entryDy=0;fillColor=#ffe6cc;strokeColor=#d79b00;" edge="1" parent="1" source="iajkwG3QeJljan4XgmEn-48" target="iajkwG3QeJljan4XgmEn-39">
          <mxGeometry width="50" height="50" relative="1" as="geometry">
            <mxPoint x="484" y="430" as="sourcePoint" />
            <mxPoint x="534" y="380" as="targetPoint" />
          </mxGeometry>
        </mxCell>
        <mxCell id="iajkwG3QeJljan4XgmEn-57" value="&lt;font style=&quot;font-size: 20px;&quot;&gt;Data&lt;/font&gt;" style="text;html=1;strokeColor=none;fillColor=none;align=center;verticalAlign=middle;whiteSpace=wrap;rounded=0;" vertex="1" parent="1">
          <mxGeometry x="250" y="20" width="190" height="40" as="geometry" />
        </mxCell>
        <mxCell id="iajkwG3QeJljan4XgmEn-58" value="" style="endArrow=classic;html=1;rounded=0;entryX=1;entryY=0.5;entryDx=0;entryDy=0;fillColor=#ffe6cc;strokeColor=#d79b00;" edge="1" parent="1" target="iajkwG3QeJljan4XgmEn-26">
          <mxGeometry width="50" height="50" relative="1" as="geometry">
            <mxPoint x="249" y="20" as="sourcePoint" />
            <mxPoint x="299" y="-30" as="targetPoint" />
          </mxGeometry>
        </mxCell>
      </root>
    </mxGraphModel>
  </diagram>
</mxfile>
